<?xml version="1.0" standalone="no"?><!DOCTYPE svg PUBLIC "-//W3C//DTD SVG 1.1//EN" "http://www.w3.org/Graphics/SVG/1.1/DTD/svg11.dtd"><svg t="1598183667275" class="icon" viewBox="0 0 1024 1024" version="1.1" xmlns="http://www.w3.org/2000/svg" p-id="11326" xmlns:xlink="http://www.w3.org/1999/xlink" width="32" height="32"><defs><style type="text/css"></style></defs><path d="M286.125874 419.302245h-1.118828a70.988191 70.988191 0 0 1-5.608483 22.491309l-28.013728 84.06987h71.719733l-31.384555-85.203042c-2.223312-7.473196-4.102369-14.645169-5.594139-21.358137zM750.195576 418.169074h-36.993038v75.104904H750.195576q43.720349-1.104484 44.839177-38.111866-1.133172-35.845522-44.839177-36.993038zM524.880864 418.169074h-36.978694v75.104904h36.978694q43.720349-1.104484 44.839177-38.111866-1.118828-35.845522-44.839177-36.993038z" fill="#FF8DA3" p-id="11327"></path><path d="M512 0C229.237782 0 0.007172 229.244954 0.007172 512.078892s229.23061 511.906764 511.992828 511.906764 511.978484-229.216266 511.978484-511.906764-229.216266-512.078892-511.978484-512.078892zM351.146983 622.183025l-17.915589-53.804143h-94.182353l-17.929933 53.804143h-60.531454l91.916009-246.601129h67.258765l93.034838 246.601129z m178.223536-86.307526h-41.468349v86.307526h-56.056143V375.581896h103.132975q89.649666 2.252 93.034838 77.34256 1.104484 84.069871-98.643321 82.951043z m225.300369 0h-41.46835v86.307526h-56.041799V375.581896h103.118632q89.678354 2.252 93.034837 77.34256 1.118828 84.069871-98.64332 82.951043z" fill="#FF8DA3" p-id="11328"></path></svg>