<?xml version="1.0" standalone="no"?><!DOCTYPE svg PUBLIC "-//W3C//DTD SVG 1.1//EN" "http://www.w3.org/Graphics/SVG/1.1/DTD/svg11.dtd"><svg t="1598170961030" class="icon" viewBox="0 0 1024 1024" version="1.1" xmlns="http://www.w3.org/2000/svg" p-id="2247" xmlns:xlink="http://www.w3.org/1999/xlink" width="32" height="32"><defs><style type="text/css"></style></defs><path d="M664.352 152.307H359.219c-45.973 0-83.219 37.273-83.219 83.214v554.762c0 45.94 37.25 83.219 83.219 83.219h305.133c45.969 0 83.219-37.278 83.219-83.219V235.521c-0.001-45.941-37.251-83.214-83.219-83.214z m-180.309 27.738h55.48c7.668 0 13.871 6.203 13.871 13.867 0 7.668-6.203 13.871-13.871 13.871h-55.48c-7.664 0-13.867-6.203-13.867-13.871 0-7.664 6.203-13.867 13.867-13.867z m27.742 659.566c-19.586 0-35.461-15.871-35.461-35.457s15.875-35.457 35.461-35.457 35.457 15.875 35.457 35.457c0.004 19.586-15.871 35.457-35.457 35.457zM692.09 720.939c0 7.668-6.203 13.867-13.871 13.867H345.348c-7.664 0-13.871-6.199-13.871-13.867v-471.55c0-7.665 6.207-13.868 13.871-13.868h332.871c7.668 0 13.871 6.203 13.871 13.868v471.55z m0 0" fill="#ffffff" p-id="2248"></path><path d="M431 492m-24 0a24 24 0 1 0 48 0 24 24 0 1 0-48 0Z" fill="#ffffff" p-id="2249"></path><path d="M512 492m-24 0a24 24 0 1 0 48 0 24 24 0 1 0-48 0Z" fill="#ffffff" p-id="2250"></path><path d="M593 492m-24 0a24 24 0 1 0 48 0 24 24 0 1 0-48 0Z" fill="#ffffff" p-id="2251"></path></svg>