<?xml version="1.0" standalone="no"?><!DOCTYPE svg PUBLIC "-//W3C//DTD SVG 1.1//EN" "http://www.w3.org/Graphics/SVG/1.1/DTD/svg11.dtd"><svg t="1598183580502" class="icon" viewBox="0 0 1024 1024" version="1.1" xmlns="http://www.w3.org/2000/svg" p-id="8043" xmlns:xlink="http://www.w3.org/1999/xlink" width="32" height="32"><defs><style type="text/css"></style></defs><path d="M781.7728 1021.952H232.3968c-52.1216 0-96.4096-39.6288-103.8336-92.5696L27.4432 467.4048a110.4384 110.4384 0 0 1 26.6752-86.016 103.5264 103.5264 0 0 1 77.4144-35.072h750.848c29.3888 0 57.6512 12.8 77.4144 35.0208a110.08 110.08 0 0 1 26.7776 86.0672l-0.7168 4.096-100.352 457.8816c-7.3216 52.9408-51.6096 92.5696-103.7312 92.5696z" fill="#d81e06" p-id="8044"></path><path d="M112.128 455.7824l100.864 461.3632c1.3824 11.1104 9.6256 19.6608 19.2512 19.6608h549.376c9.6768 0 18.0736-8.3968 19.3024-19.6608l0.7168-4.096 100.2496-457.1136A24.4224 24.4224 0 0 0 896 438.272a17.8176 17.8176 0 0 0-13.568-6.4H131.6352a17.8176 17.8176 0 0 0-13.568 6.4 23.7568 23.7568 0 0 0-5.9392 17.5104zM731.0336 309.504a42.752 42.752 0 0 1-42.7008-42.7008c0-99.8912-81.2544-181.248-181.248-181.248a181.4528 181.4528 0 0 0-181.248 181.248 42.752 42.752 0 0 1-85.4016 0A266.9568 266.9568 0 0 1 507.0848 0.1024a266.9568 266.9568 0 0 1 266.6496 266.7008c0 23.552-19.0976 42.7008-42.7008 42.7008z" fill="#d81e06" p-id="8045"></path><path d="M669.9008 757.4016h-325.632a42.752 42.752 0 0 1 0-85.4016h325.632a42.752 42.752 0 0 1 0 85.4016z" fill="#d81e06" p-id="8046"></path></svg>