<?xml version="1.0" standalone="no"?><!DOCTYPE svg PUBLIC "-//W3C//DTD SVG 1.1//EN" "http://www.w3.org/Graphics/SVG/1.1/DTD/svg11.dtd"><svg t="1598173348560" class="icon" viewBox="0 0 1024 1024" version="1.1" xmlns="http://www.w3.org/2000/svg" p-id="4347" xmlns:xlink="http://www.w3.org/1999/xlink" width="32" height="32"><defs><style type="text/css"></style></defs><path d="M0 512c0 283.306667 228.693333 512 512 512s512-228.693333 512-512S795.306667 0 512 0 0 228.693333 0 512z m0 0" fill="#FFFFFF" p-id="4348"></path><path d="M512 1017.173333c162.133333 0 303.786667-75.093333 394.24-189.44-20.48-20.48-51.2-27.306667-81.92-42.666666-42.666667-20.48-87.04-42.666667-129.706667-59.733334l-35.84-11.946666c-15.36-11.946667-27.306667-47.786667-35.84-63.146667-8.533333 0-15.36-3.413333-23.893333-3.413333 0-27.306667 15.36-27.306667 23.893333-51.2 3.413333-20.48 0-42.666667 8.533334-59.733334 3.413333-11.946667 20.48-11.946667 27.306666-23.893333 8.533333-8.533333 11.946667-23.893333 11.946667-35.84 3.413333-20.48 8.533333-47.786667-3.413333-71.68-3.413333-11.946667-8.533333-11.946667-8.533334-27.306667 0-15.36 3.413333-75.093333 3.413334-87.04 0-30.72 0-35.84-8.533334-63.146666 0 0-8.533333-27.306667-23.893333-35.84l-27.306667-3.413334-15.36-15.36c-66.56-42.666667-138.24-11.946667-174.08 3.413334-47.786667 23.893333-81.92 81.92-59.733333 204.8 3.413333 20.48-11.946667 30.72-8.533333 42.666666 3.413333 23.893333 3.413333 87.04 23.893333 102.4 3.413333 0 15.36 3.413333 15.36 3.413334 3.413333 23.893333 3.413333 51.2 8.533333 75.093333 3.413333 15.36 20.48 20.48 23.893334 42.666667l-15.36 3.413333c-8.533333 15.36-20.48 51.2-35.84 63.146667l-35.84 11.946666-129.706667 59.733334c-27.306667 11.946667-63.146667 20.48-81.92 42.666666 90.453333 116.053333 232.106667 189.44 394.24 189.44z m0 0" fill="#BFC3CA" opacity=".3" p-id="4349"></path><path d="M512 0C228.693333 0 0 228.693333 0 512s228.693333 512 512 512 512-228.693333 512-512S795.306667 0 512 0z m0 1006.933333C238.933333 1006.933333 17.066667 785.066667 17.066667 512S238.933333 17.066667 512 17.066667s494.933333 221.866667 494.933333 494.933333-221.866667 494.933333-494.933333 494.933333z" fill="#DBDDE5" p-id="4350"></path></svg>