<?xml version="1.0" standalone="no"?><!DOCTYPE svg PUBLIC "-//W3C//DTD SVG 1.1//EN" "http://www.w3.org/Graphics/SVG/1.1/DTD/svg11.dtd"><svg t="1598183601069" class="icon" viewBox="0 0 1024 1024" version="1.1" xmlns="http://www.w3.org/2000/svg" p-id="8996" xmlns:xlink="http://www.w3.org/1999/xlink" width="32" height="32"><defs><style type="text/css"></style></defs><path d="M647.68 353.28l-66.048-130.56c28.672-15.872 39.936-50.688 26.112-80.384-14.336-31.232-51.712-44.544-82.944-30.208-31.232 14.336-44.544 51.712-30.208 82.944 5.632 12.8 15.36 23.04 26.624 28.16L379.904 464.384 219.136 366.592c3.584-3.072 5.632-7.168 7.68-10.24 17.92-29.184 8.192-68.608-20.992-86.016-29.184-17.92-68.608-8.192-86.016 20.992-17.92 29.184-8.192 68.608 20.992 86.016 11.776 7.168 24.576 9.728 37.376 9.216l92.16 320 537.6 1.024-450.048-2.56c123.392-36.864 233.984-220.16 289.792-351.744z" fill="#FFE488" p-id="8997"></path><path d="M253.952 878.08l550.4-0.512 0.512-97.28H253.44zM977.408 316.416c-14.336-31.232-51.712-44.544-82.944-30.208-31.232 14.336-44.544 51.712-30.208 82.944l8.192 12.8-162.816 92.16-60.928-121.344v0.512c-55.808 131.584-166.4 314.88-290.304 351.744l450.048 2.56L896 399.36c15.872 7.168 34.304 7.68 50.688 0 31.744-14.336 45.056-51.712 30.72-82.944z" fill="#FFD239" p-id="8998"></path></svg>